<?xml version="1.0" encoding="UTF-8"?>
<svg xmlns="http://www.w3.org/2000/svg" xmlns:xlink="http://www.w3.org/1999/xlink" width="45px" height="45px" viewBox="0 0 45 45" version="1.1">
<g id="surface1">
<path style=" stroke:none;fill-rule:nonzero;fill:rgb(12.941176%,14.509804%,16.078431%);fill-opacity:1;" d="M 16.128906 21.359375 L 24.652344 26.28125 L 14.808594 43.328125 L 12.65625 37.214844 L 6.285156 38.40625 Z M 16.128906 21.359375 "/>
<path style=" stroke:none;fill-rule:nonzero;fill:rgb(6.666667%,7.45098%,8.235294%);fill-opacity:1;" d="M 16.128906 21.359375 L 12.183594 28.1875 C 12.988281 29.757812 14.996094 30.183594 16.523438 30.121094 C 17.03125 30.101562 17.539062 30.152344 18.035156 30.269531 C 19.074219 30.691406 20.054688 31.746094 21.277344 32.125 L 24.652344 26.28125 Z M 16.128906 21.359375 "/>
<path style=" stroke:none;fill-rule:nonzero;fill:rgb(12.941176%,14.509804%,16.078431%);fill-opacity:1;" d="M 28.871094 21.359375 L 20.347656 26.28125 L 30.191406 43.328125 L 32.34375 37.214844 L 38.714844 38.40625 Z M 28.871094 21.359375 "/>
<path style=" stroke:none;fill-rule:nonzero;fill:rgb(6.666667%,7.45098%,8.235294%);fill-opacity:1;" d="M 28.871094 21.359375 L 20.347656 26.28125 L 23.722656 32.125 C 24.945312 31.746094 25.925781 30.71875 26.964844 30.269531 C 27.460938 30.152344 27.96875 30.101562 28.476562 30.121094 C 29.996094 30.183594 31.992188 29.75 32.816406 28.1875 Z M 28.871094 21.359375 "/>
<path style=" stroke:none;fill-rule:nonzero;fill:rgb(86.666667%,1.960784%,11.372549%);fill-opacity:1;" d="M 22.203125 24.871094 L 13.578125 39.832031 L 12.65625 37.214844 L 9.921875 37.730469 L 18.5625 22.765625 Z M 22.203125 24.871094 "/>
<path style=" stroke:none;fill-rule:nonzero;fill:rgb(86.666667%,1.960784%,11.372549%);fill-opacity:1;" d="M 35.085938 37.730469 L 32.34375 37.214844 L 31.421875 39.839844 L 22.796875 24.871094 L 26.4375 22.765625 Z M 35.085938 37.730469 "/>
<path style=" stroke:none;fill-rule:nonzero;fill:rgb(65.098039%,1.568627%,8.627451%);fill-opacity:1;" d="M 26.4375 22.765625 L 22.796875 24.875 L 26.164062 30.710938 C 27.414062 29.734375 29.058594 30.367188 30.558594 29.910156 Z M 26.4375 22.765625 "/>
<path style=" stroke:none;fill-rule:nonzero;fill:rgb(65.098039%,1.568627%,8.627451%);fill-opacity:1;" d="M 18.5625 22.765625 L 14.441406 29.902344 C 15.941406 30.359375 17.585938 29.726562 18.835938 30.707031 L 22.203125 24.871094 Z M 18.5625 22.765625 "/>
<path style=" stroke:none;fill-rule:nonzero;fill:rgb(98.823529%,80.392157%,11.372549%);fill-opacity:1;" d="M 35.542969 16.523438 C 35.542969 15.039062 36.648438 13.402344 36.246094 12.066406 C 35.84375 10.730469 33.890625 10.011719 33.046875 8.859375 C 32.203125 7.707031 32.132812 5.710938 30.9375 4.859375 C 29.742188 4.007812 27.878906 4.5625 26.492188 4.15625 C 25.109375 3.746094 23.984375 2.109375 22.5 2.109375 C 21.015625 2.109375 19.808594 3.683594 18.472656 4.121094 C 17.136719 4.554688 15.179688 4.023438 14.027344 4.824219 C 12.875 5.625 12.796875 7.636719 11.917969 8.824219 C 11.039062 10.011719 9.210938 10.644531 8.761719 12.03125 C 8.3125 13.414062 9.429688 15.003906 9.429688 16.488281 C 9.429688 17.972656 8.324219 19.609375 8.761719 20.945312 C 9.195312 22.28125 11.109375 23.035156 11.953125 24.1875 C 12.796875 25.339844 12.867188 27.335938 14.0625 28.1875 C 15.257812 29.039062 17.121094 28.484375 18.507812 28.890625 C 19.890625 29.300781 21.015625 30.9375 22.5 30.9375 C 23.984375 30.9375 25.191406 29.363281 26.527344 28.925781 C 27.863281 28.492188 29.820312 29.023438 30.972656 28.222656 C 32.125 27.421875 32.203125 25.410156 33.082031 24.222656 C 33.960938 23.035156 35.789062 22.402344 36.238281 21.015625 C 36.6875 19.632812 35.542969 18.007812 35.542969 16.523438 Z M 35.542969 16.523438 "/>
<path style=" stroke:none;fill-rule:nonzero;fill:rgb(97.647059%,63.529412%,8.235294%);fill-opacity:1;" d="M 32.695312 16.523438 C 32.695312 22.152344 28.128906 26.71875 22.5 26.71875 C 16.871094 26.71875 12.304688 22.152344 12.304688 16.523438 C 12.304688 10.894531 16.871094 6.328125 22.5 6.328125 C 28.128906 6.328125 32.695312 10.894531 32.695312 16.523438 Z M 32.695312 16.523438 "/>
<path style=" stroke:none;fill-rule:nonzero;fill:rgb(98.823529%,80.392157%,11.372549%);fill-opacity:1;" d="M 23.464844 11.25 L 24.53125 13.097656 C 24.6875 13.378906 24.960938 13.574219 25.277344 13.632812 L 27.421875 14.0625 C 27.8125 14.128906 28.132812 14.40625 28.257812 14.785156 C 28.382812 15.160156 28.292969 15.574219 28.019531 15.863281 L 26.542969 17.421875 C 26.324219 17.652344 26.222656 17.96875 26.261719 18.28125 L 26.515625 20.390625 C 26.554688 20.785156 26.378906 21.167969 26.054688 21.398438 C 25.734375 21.628906 25.3125 21.667969 24.953125 21.5 L 22.976562 20.609375 C 22.683594 20.476562 22.34375 20.476562 22.050781 20.609375 L 20.074219 21.5 C 19.714844 21.675781 19.289062 21.640625 18.960938 21.40625 C 18.632812 21.175781 18.457031 20.789062 18.5 20.390625 L 18.753906 18.28125 C 18.792969 17.96875 18.6875 17.652344 18.472656 17.421875 L 16.996094 15.863281 C 16.722656 15.578125 16.628906 15.164062 16.75 14.789062 C 16.871094 14.414062 17.191406 14.132812 17.578125 14.0625 L 19.6875 13.648438 C 20.003906 13.589844 20.277344 13.394531 20.433594 13.113281 L 21.535156 11.25 C 21.738281 10.910156 22.105469 10.699219 22.5 10.699219 C 22.894531 10.699219 23.261719 10.910156 23.464844 11.25 Z M 23.464844 11.25 "/>
</g>
</svg>
