<?xml version="1.0" encoding="UTF-8"?>
<svg xmlns="http://www.w3.org/2000/svg" xmlns:xlink="http://www.w3.org/1999/xlink" width="45px" height="45px" viewBox="0 0 45 45" version="1.1">
<g id="surface1">
<path style=" stroke:none;fill-rule:nonzero;fill:rgb(54.901961%,78.431373%,29.411765%);fill-opacity:1;" d="M 20.664062 0.570312 C 21.777344 -0.0664062 23.222656 -0.0664062 24.332031 0.570312 C 29.917969 3.726562 35.503906 6.878906 41.085938 10.035156 C 42.136719 10.625 42.839844 11.792969 42.828125 13.003906 L 42.828125 31.988281 C 42.835938 33.25 42.066406 34.445312 40.957031 35.023438 C 35.390625 38.160156 29.828125 41.304688 24.261719 44.441406 C 23.128906 45.089844 21.652344 45.039062 20.554688 44.339844 C 18.886719 43.371094 17.214844 42.410156 15.546875 41.441406 C 15.203125 41.238281 14.820312 41.078125 14.578125 40.746094 C 14.792969 40.460938 15.171875 40.425781 15.480469 40.300781 C 16.179688 40.078125 16.816406 39.722656 17.457031 39.375 C 17.621094 39.265625 17.816406 39.308594 17.972656 39.40625 C 19.398438 40.226562 20.8125 41.066406 22.246094 41.878906 C 22.550781 42.054688 22.859375 41.820312 23.121094 41.675781 C 28.582031 38.585938 34.050781 35.511719 39.511719 32.425781 C 39.714844 32.328125 39.828125 32.113281 39.8125 31.890625 C 39.816406 25.628906 39.8125 19.363281 39.8125 13.101562 C 39.835938 12.851562 39.691406 12.621094 39.460938 12.515625 C 33.917969 9.394531 28.371094 6.265625 22.828125 3.140625 C 22.628906 3.003906 22.371094 3.003906 22.171875 3.140625 C 16.628906 6.265625 11.085938 9.394531 5.539062 12.519531 C 5.3125 12.621094 5.160156 12.851562 5.1875 13.101562 C 5.1875 19.363281 5.1875 25.628906 5.1875 31.890625 C 5.167969 32.113281 5.289062 32.324219 5.488281 32.417969 C 6.96875 33.257812 8.449219 34.089844 9.929688 34.925781 C 10.765625 35.375 11.789062 35.644531 12.710938 35.300781 C 13.519531 35.007812 14.089844 34.179688 14.074219 33.320312 C 14.082031 27.09375 14.070312 20.867188 14.078125 14.640625 C 14.058594 14.367188 14.320312 14.136719 14.589844 14.164062 C 15.300781 14.160156 16.011719 14.152344 16.722656 14.164062 C 17.019531 14.160156 17.226562 14.457031 17.1875 14.734375 C 17.183594 21 17.195312 27.265625 17.183594 33.53125 C 17.183594 35.199219 16.5 37.015625 14.953125 37.835938 C 13.050781 38.820312 10.699219 38.609375 8.820312 37.664062 C 7.191406 36.855469 5.640625 35.894531 4.042969 35.023438 C 2.929688 34.449219 2.164062 33.25 2.171875 31.988281 L 2.171875 13.003906 C 2.160156 11.769531 2.890625 10.578125 3.972656 9.996094 C 9.539062 6.855469 15.101562 3.714844 20.664062 0.570312 Z M 20.664062 0.570312 "/>
<path style=" stroke:none;fill-rule:nonzero;fill:rgb(54.901961%,78.431373%,29.411765%);fill-opacity:1;" d="M 25.519531 13.722656 C 27.949219 13.566406 30.546875 13.628906 32.730469 14.824219 C 34.421875 15.742188 35.359375 17.664062 35.386719 19.542969 C 35.339844 19.796875 35.078125 19.9375 34.835938 19.917969 C 34.128906 19.917969 33.425781 19.929688 32.722656 19.914062 C 32.421875 19.925781 32.25 19.648438 32.210938 19.386719 C 32.007812 18.488281 31.519531 17.597656 30.671875 17.164062 C 29.375 16.511719 27.867188 16.546875 26.453125 16.558594 C 25.417969 16.613281 24.304688 16.703125 23.429688 17.3125 C 22.757812 17.773438 22.554688 18.703125 22.792969 19.449219 C 23.019531 19.988281 23.640625 20.160156 24.148438 20.320312 C 27.074219 21.085938 30.171875 21.011719 33.042969 22.015625 C 34.230469 22.425781 35.390625 23.226562 35.796875 24.46875 C 36.332031 26.136719 36.097656 28.128906 34.910156 29.464844 C 33.949219 30.566406 32.550781 31.167969 31.152344 31.492188 C 29.292969 31.90625 27.363281 31.917969 25.476562 31.734375 C 23.703125 31.53125 21.855469 31.066406 20.484375 29.855469 C 19.3125 28.839844 18.742188 27.253906 18.796875 25.722656 C 18.8125 25.464844 19.070312 25.285156 19.316406 25.304688 C 20.027344 25.300781 20.734375 25.296875 21.445312 25.308594 C 21.726562 25.289062 21.9375 25.53125 21.953125 25.800781 C 22.082031 26.65625 22.40625 27.554688 23.152344 28.0625 C 24.59375 28.992188 26.402344 28.929688 28.050781 28.953125 C 29.417969 28.894531 30.953125 28.875 32.070312 27.972656 C 32.65625 27.457031 32.832031 26.59375 32.671875 25.851562 C 32.5 25.226562 31.84375 24.933594 31.28125 24.742188 C 28.394531 23.828125 25.261719 24.160156 22.402344 23.128906 C 21.242188 22.71875 20.117188 21.941406 19.671875 20.75 C 19.050781 19.0625 19.335938 16.972656 20.644531 15.679688 C 21.921875 14.394531 23.765625 13.898438 25.519531 13.722656 Z M 25.519531 13.722656 "/>
</g>
</svg>
