<?xml version="1.0" encoding="UTF-8"?>
<svg xmlns="http://www.w3.org/2000/svg" xmlns:xlink="http://www.w3.org/1999/xlink" width="210px" height="69px" viewBox="0 0 210 69" version="1.1">
<g id="surface1">
<path style=" stroke:none;fill-rule:nonzero;fill:rgb(14.117647%,17.254902%,20%);fill-opacity:1;" d="M 85.117188 15.890625 C 88.753906 15.890625 91.902344 16.675781 94.554688 18.238281 C 97.207031 19.804688 99.253906 22.039062 100.695312 24.941406 C 102.132812 27.839844 102.855469 31.316406 102.855469 35.363281 C 102.855469 39.410156 102.136719 42.882812 100.695312 45.785156 C 99.253906 48.6875 97.207031 50.921875 94.554688 52.484375 C 91.902344 54.050781 88.757812 54.835938 85.117188 54.835938 C 81.515625 54.835938 78.390625 54.050781 75.742188 52.484375 C 73.085938 50.917969 71.042969 48.6875 69.601562 45.785156 C 68.160156 42.882812 67.441406 39.410156 67.441406 35.363281 C 67.441406 31.316406 68.160156 27.839844 69.601562 24.941406 C 71.039062 22.039062 73.085938 19.804688 75.742188 18.238281 C 78.390625 16.675781 81.515625 15.890625 85.117188 15.890625 Z M 85.117188 21.214844 C 82.769531 21.214844 80.75 21.769531 79.066406 22.875 C 77.378906 23.980469 76.078125 25.585938 75.171875 27.683594 C 74.261719 29.785156 73.808594 32.339844 73.808594 35.355469 C 73.808594 38.332031 74.265625 40.882812 75.171875 43 C 76.082031 45.117188 77.378906 46.734375 79.066406 47.839844 C 80.75 48.949219 82.769531 49.5 85.117188 49.5 C 87.503906 49.5 89.542969 48.949219 91.230469 47.839844 C 92.914062 46.734375 94.214844 45.117188 95.125 43 C 96.035156 40.882812 96.488281 38.332031 96.488281 35.355469 C 96.488281 32.339844 96.03125 29.78125 95.125 27.683594 C 94.214844 25.585938 92.914062 23.980469 91.230469 22.875 C 89.542969 21.769531 87.503906 21.214844 85.117188 21.214844 Z M 85.117188 21.214844 "/>
<path style=" stroke:none;fill-rule:nonzero;fill:rgb(14.117647%,17.254902%,20%);fill-opacity:1;" d="M 116.949219 12.742188 L 116.949219 46.242188 C 116.949219 47.660156 117.195312 48.632812 117.6875 49.164062 C 118.179688 49.699219 118.996094 49.964844 120.132812 49.964844 C 120.8125 49.964844 121.390625 49.917969 121.863281 49.820312 C 122.335938 49.726562 122.9375 49.546875 123.65625 49.277344 L 122.972656 53.859375 C 122.332031 54.164062 121.589844 54.402344 120.757812 54.574219 C 119.921875 54.75 119.089844 54.835938 118.257812 54.835938 C 115.71875 54.835938 113.851562 54.175781 112.660156 52.859375 C 111.464844 51.539062 110.871094 49.507812 110.871094 46.757812 L 110.871094 12.742188 Z M 116.949219 12.742188 "/>
<path style=" stroke:none;fill-rule:nonzero;fill:rgb(14.117647%,17.254902%,20%);fill-opacity:1;" d="M 131.839844 20.8125 C 130.511719 20.8125 129.5 20.480469 128.796875 19.808594 C 128.097656 19.140625 127.746094 18.199219 127.746094 16.972656 C 127.746094 15.753906 128.097656 14.816406 128.796875 14.167969 C 129.5 13.519531 130.511719 13.195312 131.839844 13.195312 C 133.125 13.195312 134.121094 13.519531 134.820312 14.167969 C 135.523438 14.816406 135.871094 15.753906 135.871094 16.972656 C 135.871094 18.195312 135.519531 19.140625 134.820312 19.808594 C 134.117188 20.480469 133.125 20.8125 131.839844 20.8125 Z M 134.851562 25.625 L 134.851562 54.261719 L 128.769531 54.261719 L 128.769531 25.625 Z M 134.851562 25.625 "/>
<path style=" stroke:none;fill-rule:nonzero;fill:rgb(14.117647%,17.254902%,20%);fill-opacity:1;" d="M 159.574219 54.835938 C 157.90625 54.835938 156.382812 54.511719 154.996094 53.859375 C 153.613281 53.210938 152.449219 52.304688 151.503906 51.144531 C 150.554688 49.980469 149.855469 48.671875 149.398438 47.21875 L 150.140625 46.246094 L 149.683594 54.265625 L 144.34375 54.265625 L 144.34375 12.742188 L 150.421875 12.742188 L 150.421875 32.84375 L 149.742188 31.871094 C 150.460938 29.886719 151.695312 28.253906 153.4375 26.976562 C 155.179688 25.695312 157.28125 25.058594 159.746094 25.058594 C 162.019531 25.058594 164.113281 25.652344 166.027344 26.835938 C 167.941406 28.015625 169.445312 29.71875 170.546875 31.929688 C 171.644531 34.144531 172.191406 36.835938 172.191406 40.007812 C 172.191406 43.097656 171.636719 45.753906 170.515625 47.964844 C 169.394531 50.179688 167.882812 51.878906 165.96875 53.0625 C 164.054688 54.242188 161.921875 54.835938 159.574219 54.835938 Z M 158.265625 49.90625 C 160.726562 49.90625 162.652344 49.019531 164.035156 47.246094 C 165.417969 45.46875 166.109375 43.035156 166.109375 39.941406 C 166.109375 36.847656 165.425781 34.425781 164.0625 32.667969 C 162.699219 30.910156 160.785156 30.03125 158.320312 30.03125 C 156.726562 30.03125 155.34375 30.441406 154.167969 31.265625 C 152.996094 32.085938 152.074219 33.242188 151.414062 34.726562 C 150.75 36.21875 150.417969 37.992188 150.417969 40.054688 C 150.417969 42.078125 150.738281 43.824219 151.382812 45.296875 C 152.027344 46.765625 152.945312 47.898438 154.136719 48.703125 C 155.339844 49.507812 156.714844 49.90625 158.265625 49.90625 Z M 158.265625 49.90625 "/>
<path style=" stroke:none;fill-rule:nonzero;fill:rgb(14.117647%,17.254902%,20%);fill-opacity:1;" d="M 179.980469 54.261719 L 179.980469 25.625 L 185.152344 25.625 L 185.722656 30.78125 C 186.476562 28.910156 187.605469 27.488281 189.105469 26.511719 C 190.601562 25.539062 192.449219 25.054688 194.648438 25.054688 C 195.214844 25.054688 195.785156 25.101562 196.351562 25.199219 C 196.921875 25.296875 197.394531 25.4375 197.773438 25.628906 L 196.921875 31.011719 C 196.503906 30.859375 196.039062 30.734375 195.527344 30.640625 C 195.015625 30.546875 194.324219 30.496094 193.453125 30.496094 C 192.277344 30.496094 191.121094 30.808594 189.984375 31.441406 C 188.847656 32.070312 187.910156 33.011719 187.167969 34.277344 C 186.429688 35.535156 186.058594 37.140625 186.058594 39.085938 L 186.058594 54.261719 Z M 179.980469 54.261719 "/>
<path style=" stroke:none;fill-rule:nonzero;fill:rgb(31.372549%,69.019608%,73.333333%);fill-opacity:1;" d="M 18.601562 31.070312 C 17.382812 31.070312 16.34375 30.140625 16.21875 28.894531 C 16.089844 27.566406 17.050781 26.386719 18.371094 26.253906 C 24.972656 25.597656 29.816406 19.652344 29.164062 12.996094 C 29.035156 11.667969 29.996094 10.488281 31.316406 10.355469 C 32.632812 10.226562 33.804688 11.195312 33.933594 12.523438 C 34.847656 21.828125 28.078125 30.144531 18.84375 31.058594 C 18.757812 31.066406 18.679688 31.070312 18.601562 31.070312 Z M 18.601562 31.070312 "/>
<path style=" stroke:none;fill-rule:nonzero;fill:rgb(31.372549%,69.019608%,73.333333%);fill-opacity:1;" d="M 19.507812 20.746094 C 22.195312 20.746094 24.371094 18.550781 24.371094 15.847656 C 24.371094 13.140625 22.195312 10.945312 19.507812 10.945312 C 16.824219 10.945312 14.648438 13.140625 14.648438 15.847656 C 14.648438 18.550781 16.824219 20.746094 19.507812 20.746094 Z M 19.507812 20.746094 "/>
<path style=" stroke:none;fill-rule:nonzero;fill:rgb(98.823529%,70.196078%,28.627451%);fill-opacity:1;" d="M 54.957031 31.070312 C 54.878906 31.070312 54.800781 31.066406 54.722656 31.058594 C 50.25 30.613281 46.210938 28.445312 43.363281 24.945312 C 40.511719 21.441406 39.183594 17.03125 39.625 12.523438 C 39.753906 11.195312 40.921875 10.226562 42.246094 10.355469 C 43.5625 10.488281 44.523438 11.671875 44.394531 12.996094 C 44.078125 16.21875 45.027344 19.375 47.070312 21.875 C 49.109375 24.382812 51.992188 25.933594 55.195312 26.25 C 56.511719 26.382812 57.472656 27.566406 57.34375 28.890625 C 57.21875 30.140625 56.171875 31.070312 54.957031 31.070312 Z M 54.957031 31.070312 "/>
<path style=" stroke:none;fill-rule:nonzero;fill:rgb(98.823529%,70.196078%,28.627451%);fill-opacity:1;" d="M 54.050781 20.746094 C 56.734375 20.746094 58.914062 18.550781 58.914062 15.847656 C 58.914062 13.140625 56.734375 10.945312 54.050781 10.945312 C 51.363281 10.945312 49.1875 13.140625 49.1875 15.847656 C 49.1875 18.550781 51.363281 20.746094 54.050781 20.746094 Z M 54.050781 20.746094 "/>
<path style=" stroke:none;fill-rule:nonzero;fill:rgb(45.490196%,48.627451%,45.882353%);fill-opacity:1;" d="M 42.109375 57.101562 C 40.910156 57.101562 39.871094 56.195312 39.730469 54.957031 C 38.675781 45.667969 45.324219 37.25 54.539062 36.1875 C 55.855469 36.035156 57.042969 36.988281 57.195312 38.3125 C 57.34375 39.636719 56.398438 40.835938 55.085938 40.984375 C 48.488281 41.746094 43.742188 47.769531 44.492188 54.410156 C 44.644531 55.734375 43.699219 56.933594 42.386719 57.082031 C 42.296875 57.097656 42.203125 57.101562 42.109375 57.101562 Z M 42.109375 57.101562 "/>
<path style=" stroke:none;fill-rule:nonzero;fill:rgb(45.490196%,48.627451%,45.882353%);fill-opacity:1;" d="M 54.109375 56.3125 C 56.792969 56.3125 58.96875 54.117188 58.96875 51.410156 C 58.96875 48.707031 56.792969 46.511719 54.109375 46.511719 C 51.421875 46.511719 49.246094 48.707031 49.246094 51.410156 C 49.246094 54.117188 51.421875 56.3125 54.109375 56.3125 Z M 54.109375 56.3125 "/>
<path style=" stroke:none;fill-rule:nonzero;fill:rgb(94.509804%,36.470588%,23.137255%);fill-opacity:1;" d="M 31.664062 57.265625 C 31.597656 57.265625 31.53125 57.261719 31.460938 57.257812 C 30.144531 57.148438 29.160156 55.984375 29.269531 54.65625 C 29.535156 51.425781 28.539062 48.289062 26.460938 45.816406 C 24.382812 43.347656 21.476562 41.835938 18.269531 41.570312 C 16.953125 41.457031 15.96875 40.292969 16.078125 38.964844 C 16.1875 37.636719 17.347656 36.648438 18.664062 36.757812 C 23.140625 37.128906 27.210938 39.238281 30.117188 42.695312 C 33.023438 46.152344 34.417969 50.539062 34.046875 55.050781 C 33.945312 56.3125 32.898438 57.265625 31.664062 57.265625 Z M 31.664062 57.265625 "/>
<path style=" stroke:none;fill-rule:nonzero;fill:rgb(94.509804%,36.470588%,23.137255%);fill-opacity:1;" d="M 19.570312 56.851562 C 22.257812 56.851562 24.433594 54.660156 24.433594 51.953125 C 24.433594 49.246094 22.257812 47.054688 19.570312 47.054688 C 16.886719 47.054688 14.710938 49.246094 14.710938 51.953125 C 14.710938 54.660156 16.886719 56.851562 19.570312 56.851562 Z M 19.570312 56.851562 "/>
</g>
</svg>
